<svg width="158" height="34" fill="none" xmlns="http://www.w3.org/2000/svg"><g clip-path="url(#clip0)"><path d="M49.0028 20.0915c-.8819-.1917-1.7254-.4218-2.5306-.7668-.8052-.3068-1.4954-.7285-2.0705-1.2653-.6135-.4985-1.0736-1.112-1.4187-1.8405-.3451-.7285-.5368-1.5337-.5368-2.4922 0-1.112.2684-2.0705.8052-2.8757.5368-.8052 1.227-1.45703 2.0705-1.95549.8435-.49845 1.7638-.88187 2.799-1.15027 1.0353-.2684 2.0705-.38342 3.0674-.38342 1.1119 0 2.1855.15337 3.2208.49845 1.0352.30674 1.9171.76685 2.7223 1.38033.8052.61348 1.4187 1.3036 1.8788 2.1472.4601.8435.7285 1.8021.8052 2.8373H55.636c-.0766-.6518-.2684-1.1886-.5751-1.6104-.3067-.4217-.6518-.8052-1.0736-1.0736-.4218-.2684-.8819-.4601-1.4187-.5751-.5368-.115-1.0352-.1534-1.5337-.1534-.4984 0-.9969.0384-1.4953.1534-.4985.115-.9586.2684-1.3803.4601-.4218.2301-.7285.4985-.9969.8436-.2684.345-.3835.7668-.3835 1.2653 0 .7668.2684 1.3803.8436 1.802.5751.4602 1.3036.7286 2.1855.9203l2.8757.4984c.8818.1534 1.7637.3834 2.6839.6518.8819.2684 1.6871.6902 2.4156 1.1503.7285.4985 1.3037 1.1119 1.7254 1.9171.4601.7669.6518 1.7254.6518 2.8757 0 1.112-.2684 2.1089-.7668 2.9524-.4985.8435-1.1886 1.5337-2.0321 2.1088-.8436.5752-1.8021.9969-2.8374 1.2653-1.0736.2684-2.1472.4218-3.2591.4218-1.342 0-2.5689-.1917-3.6809-.5368-1.1119-.3451-2.0705-.8435-2.8757-1.4954-.8052-.6518-1.457-1.457-1.9554-2.3772-.4985-.9202-.7669-1.9938-.8819-3.1824h4.1793c.1151.8052.3451 1.4953.6518 1.9938.3068.5368.7286.9586 1.1887 1.3036.4601.3068.9969.5368 1.6103.6902.6135.115 1.227.1917 1.8788.1917.4985 0 .9969-.0383 1.4954-.1534.4984-.115.9969-.2683 1.4187-.4984.4217-.2301.8051-.5368 1.0735-.9202.2684-.3834.4218-.8819.4218-1.457 0-.4601-.115-.8436-.3067-1.1887-.1917-.345-.4985-.6134-.8436-.8435-.345-.23-.8052-.4218-1.3036-.5751-.4985-.1534-1.0353-.2684-1.6104-.3834l-2.7223-.5752zM65.7184 15.5672c.4601-.8435 1.1119-1.457 1.9555-1.8788.8435-.4217 1.7637-.6518 2.7606-.6518 1.9555 0 3.3741.5751 4.2944 1.6871.8818 1.1119 1.342 2.6839 1.342 4.7161v10.2758h-4.1794V20.36c0-.5368-.0383-1.0352-.115-1.4953-.0767-.4601-.1917-.8819-.4218-1.2653-.1917-.3451-.4984-.6519-.8435-.8436-.3834-.23-.8435-.3067-1.4187-.3067-.6901 0-1.2653.115-1.687.3834-.4218.2684-.7669.6135-1.0353 1.0353-.2684.4217-.4218.9585-.4984 1.5337-.0767.5751-.1534 1.1886-.1534 1.8404v8.4737h-4.1793V7.78369h4.1793v7.78351zM81.941 7.78369v3.87261h-4.1793V7.78369h4.1793zm0 5.63631v16.2956h-4.1793V13.42h4.1793zM85.5037 12.4998c0-1.0352.115-1.8404.3451-2.4922.23-.61352.6134-1.11198 1.1119-1.41872.4984-.34508 1.1119-.53679 1.8788-.65182.7285-.11503 1.6487-.15337 2.6456-.15337h1.4187v3.10571h-.8052c-.5368 0-.9586.0384-1.2653.0767-.3068.0384-.5752.115-.7285.2684-.1917.115-.3068.3068-.3451.5368-.0767.2301-.0767.5368-.0767.9202v.7669h3.2591v2.8757H89.683v13.4198h-4.1793V16.3341h-2.3006V13.42h2.3006v-.9202zM96.2412 9.01074h4.1798v4.40936h3.374v2.8757h-3.374v8.397c0 .8435.153 1.3803.46 1.6104.306.2684.843.3834 1.572.3834h1.265v2.9907h-3.067c-.9206 0-1.6874-.0767-2.2626-.23-.5751-.1534-1.0352-.4218-1.3803-.7669-.3068-.3451-.5368-.8052-.6518-1.3803-.1151-.5368-.1534-1.227-.1534-2.0322v-8.9721h-2.3006v-2.8757h2.3006V9.01074h.0383zM109.7 26.1881h10.697v3.5275h-15.03V7.78369h4.333V26.1881zM128.795 30.099c-1.342 0-2.492-.23-3.527-.6901-1.036-.4602-1.879-1.0736-2.569-1.8788-.69-.8052-1.227-1.6871-1.572-2.7223-.345-1.0353-.537-2.1472-.537-3.2975 0-1.227.192-2.3389.575-3.3741.383-1.0353.92-1.9172 1.649-2.684.69-.7669 1.572-1.342 2.53-1.7638.997-.4217 2.109-.6518 3.336-.6518 1.265 0 2.416.2301 3.413.6902.996.4601 1.84 1.1119 2.53 1.9555.69.8435 1.189 1.8787 1.534 3.0673.345 1.1887.46 2.4923.422 3.9493h-11.81c.039 1.227.422 2.2239 1.15 2.9907.729.7669 1.688 1.1503 2.838 1.1503.69 0 1.303-.1534 1.879-.4218.536-.2684 1.035-.7668 1.457-1.457h4.294c-.23.6135-.537 1.227-.92 1.8021-.384.6135-.882 1.1503-1.496 1.6487-.613.4985-1.342.8819-2.185 1.1887-.882.345-1.879.4984-2.991.4984zm-.23-13.995c-.422 0-.843.0767-1.265.2301-.422.1533-.805.3834-1.15.6901-.346.3068-.652.6902-.882 1.1503-.23.4601-.384.9969-.46 1.6487h7.553c-.038-.6901-.153-1.2653-.345-1.7254-.23-.4601-.499-.8435-.844-1.1502-.345-.3068-.728-.4985-1.188-.6519-.499-.115-.959-.1917-1.419-.1917zM139.031 12.4998c0-1.0352.115-1.8404.345-2.4922.23-.61352.614-1.11198 1.112-1.41872.498-.34508 1.112-.53679 1.879-.65182.728-.11503 1.649-.15337 2.645-.15337h1.419v3.10571h-.805c-.537 0-.959.0384-1.265.0767-.307.0384-.576.115-.729.2684-.192.115-.307.3068-.345.5368-.077.2301-.077.5368-.077.9202v.7669h3.259v2.8757h-3.259v13.4198h-4.179V16.3341h-2.301V13.42h2.301v-.9202zM149.804 9.01074h4.179v4.40936h3.374v2.8757h-3.374v8.397c0 .8435.153 1.3803.46 1.6104.307.2684.844.3834 1.572.3834h1.266v2.9907h-3.068c-.92 0-1.687-.0767-2.262-.23-.575-.1534-1.035-.4218-1.38-.7669-.307-.3451-.537-.8052-.652-1.3803-.115-.5368-.154-1.227-.154-2.0322v-8.9721h-2.3v-2.8757h2.3V9.01074h.039z" fill="#08152E"></path><path d="M24.6138 12.2698l5.0229-8.70374-4.2177-1.18862-5.5596 9.66226 7.4384 12.8831c.5368-.4984.9969-.9969 1.3037-1.4187.5751-.7668.9202-1.6487.9969-2.5689l-4.9846-8.6654z" fill="#FE381C"></path><path d="M20.2051 30.3672c1.2269-.8435 2.4922-1.7637 3.7192-2.6839l-9.0872-15.6438 6.2882-10.85088L16.7926 0 9.69922 12.2696 20.2051 30.3672zM29.6016 12.2693l.0383.0383v-.0766l-.0383.0383z" fill="#FE381C"></path><path d="M4.71612 12.2697L11.6178.34521 0 3.56598V20.5517c0 1.0736.34508 2.0705 1.03525 2.9524C3.91093 27.1849 14.8385 33.8949 14.8385 33.8949s.6902-.4218 1.7638-1.112L4.71612 12.2697z" fill="#FE381C"></path></g><defs><clipPath id="clip0"><path fill="#fff" d="M0 0h157.357v33.8947H0z"></path></clipPath></defs></svg>