<svg fill="none" version="1.1" viewBox="0 0 109 24" xmlns="http://www.w3.org/2000/svg">
<g clip-path="url(#a)" clip-rule="evenodd" fill-rule="evenodd">
<path d="m34.27 13.027c-0.6104-0.1247-1.1893-0.298-1.737-0.5201-0.5481-0.2217-1.0267-0.5096-1.4357-0.8635-0.4092-0.3537-0.7351-0.7766-0.9777-1.269-0.2429-0.4922-0.3641-1.0643-0.3641-1.7164 0-0.76268 0.1837-1.418 0.5512-1.966 0.3675-0.54787 0.8392-0.99856 1.4148-1.3525 0.5754-0.3537 1.2203-0.61692 1.935-0.79062 0.7141-0.17312 1.4179-0.26007 2.1116-0.26007 0.7766 0 1.5151 0.11135 2.2156 0.33305 0.7004 0.2219 1.3212 0.53764 1.8622 0.94663 0.541 0.40918 0.9742 0.90491 1.3003 1.4874 0.3258 0.58268 0.5097 1.2348 0.5514 1.9558h-2.8711c-0.0557-0.4438-0.1873-0.81462-0.3954-1.1132-0.208-0.29803-0.4576-0.54078-0.7489-0.72806-0.2914-0.18728-0.6173-0.31889-0.9779-0.39522-0.3608-0.07613-0.7145-0.11449-1.061-0.11449-0.3468 0-0.6938 0.03482-1.0402 0.10407-0.3468 0.06944-0.659 0.17685-0.9364 0.32242-0.2776 0.14577-0.5028 0.34014-0.6761 0.5825-0.1736 0.24295-0.2601 0.53055-0.2601 0.86341 0 0.52741 0.1977 0.94347 0.5929 1.2484 0.3954 0.30532 0.898 0.51322 1.5085 0.62422l1.9764 0.3537c0.6103 0.1109 1.224 0.2636 1.8413 0.4576 0.617 0.1943 1.1719 0.4613 1.6645 0.801 0.492 0.3399 0.8909 0.7769 1.1963 1.3108 0.3049 0.5341 0.4575 1.1893 0.4575 1.966 0 0.7768-0.1768 1.4532-0.5305 2.0286-0.3535 0.5756-0.8184 1.0578-1.3938 1.4459-0.5758 0.3885-1.2275 0.6761-1.9558 0.8634-0.7281 0.1873-1.4738 0.2809-2.2365 0.2809-0.9293 0-1.7719-0.1216-2.5279-0.3641-0.756-0.2426-1.4113-0.5894-1.966-1.0403-0.555-0.4505-0.9986-0.9985-1.3314-1.6434-0.3329-0.6452-0.5341-1.3766-0.6034-2.1952h2.8712c0.083 0.5549 0.2356 1.0163 0.4575 1.3837 0.2217 0.3677 0.4958 0.6624 0.8219 0.8841 0.3258 0.2221 0.6933 0.3781 1.1027 0.4682 0.4088 0.0905 0.8354 0.1351 1.2794 0.1351 0.3329 0 0.6762-0.0344 1.0299-0.104 0.3537-0.0693 0.6795-0.1838 0.9779-0.3433 0.298-0.1593 0.5408-0.3746 0.7282-0.6451 0.1871-0.2702 0.2808-0.6064 0.2808-1.0089 0-0.3189-0.0697-0.593-0.208-0.8217-0.1389-0.2288-0.333-0.423-0.5827-0.5825-0.2496-0.1594-0.5443-0.2914-0.884-0.3954-0.3402-0.1039-0.7112-0.1905-1.1133-0.2601l-1.9141-0.3537z" fill="#fff"/>
<path d="m45.775 9.9274c0.3189-0.56853 0.7662-0.99856 1.3418-1.2899 0.5754-0.29135 1.2101-0.43692 1.9037-0.43692 1.3452 0 2.3266 0.38498 2.9439 1.1548 0.617 0.7698 0.926 1.8484 0.926 3.2351v7.053h-2.8713v-6.4288c0-0.3606-0.0244-0.7039-0.0728-1.0299-0.0486-0.3257-0.1422-0.6137-0.2807-0.8634-0.1389-0.2496-0.3364-0.4473-0.5932-0.5929-0.2567-0.1456-0.586-0.2185-0.9881-0.2185-0.4717 0-0.8565 0.0905-1.1547 0.2705-0.2985 0.1803-0.5339 0.4198-0.7073 0.7178-0.1737 0.2984-0.2913 0.6486-0.3537 1.0507-0.0625 0.4025-0.0936 0.8254-0.0936 1.269v5.8255h-2.8712v-15.084h2.8712v5.3677z" fill="#fff"/>
<path d="m54.056 19.643h2.8709v-11.193h-2.8709v11.193zm0-12.421h2.8709v-2.663h-2.8709v2.663z" fill="#fff"/>
<path d="m59.361 7.826c0-0.70721 0.0832-1.2757 0.2496-1.7058 0.1666-0.43003 0.423-0.75954 0.7698-0.98833 0.3466-0.22878 0.7766-0.38124 1.2901-0.45777 0.5128-0.07613 1.1234-0.11449 1.8307-0.11449h0.9779v2.1429h-0.5619c-0.3606 0-0.6484 0.01416-0.8634 0.04131-0.2152 0.02734-0.3848 0.08557-0.5097 0.17469-0.1249 0.08891-0.2081 0.21265-0.2496 0.37023-0.0415 0.15777-0.0624 0.36668-0.0624 0.62695v0.53449h2.247v1.9764h-2.247v9.2168h-2.8711v-9.2168h-1.5813v-1.9764h1.5813v-0.6242z" fill="#fff"/>
<path d="m66.746 5.4126h2.8711v3.0376h2.3302v1.9764h-2.3302v5.784c0 0.5688 0.1072 0.9398 0.3224 1.1131 0.2149 0.1737 0.579 0.26 1.0922 0.26h0.8739v2.0597h-2.1014c-0.638 0-1.1581-0.0521-1.5602-0.156-0.4025-0.1042-0.7145-0.2772-0.9362-0.5201-0.2221-0.2426-0.3714-0.5548-0.4475-0.9364-0.0762-0.3813-0.1143-0.8493-0.1143-1.4042v-6.2001h-1.5813v-1.9764h1.5813v-3.0376z" fill="#fff"/>
<path d="m75.984 17.23h7.3442v2.4133h-10.319v-15.084h2.9752v12.67z" fill="#fff"/>
<path d="m88.966 10.302c-0.2914 0-0.5825 0.0521-0.8739 0.156-0.2911 0.104-0.5585 0.2636-0.801 0.4784-0.2428 0.2152-0.4474 0.4822-0.6136 0.8011-0.1666 0.3192-0.2705 0.6938-0.3122 1.1234h5.1805c-0.014-0.4713-0.0972-0.8703-0.2499-1.1962-0.1526-0.3258-0.3503-0.5894-0.5927-0.7907-0.2429-0.2008-0.5134-0.3464-0.8113-0.4369-0.2986-0.0901-0.6071-0.1351-0.9259-0.1351zm0.1455 9.612c-0.9155 0-1.7235-0.156-2.4238-0.4682-0.7005-0.312-1.2899-0.7385-1.7683-1.2795s-0.8394-1.1683-1.082-1.8828c-0.2427-0.7143-0.3639-1.4737-0.3639-2.2782 0-0.8322 0.1316-1.6019 0.3952-2.3094 0.2632-0.7074 0.6378-1.3211 1.1233-1.8413 0.4855-0.52013 1.068-0.92577 1.7477-1.2171 0.6794-0.29135 1.4425-0.43692 2.2886-0.43692 0.8739 0 1.6541 0.15974 2.3406 0.47843 0.6866 0.31928 1.2655 0.76996 1.7371 1.3525 0.4715 0.5825 0.8219 1.283 1.0507 2.1014 0.2289 0.8185 0.3295 1.7199 0.3017 2.7047h-8.114c0.0278 0.8321 0.2914 1.5153 0.7907 2.049 0.4992 0.5343 1.151 0.8011 1.9556 0.8011 0.4715 0 0.898-0.0935 1.2795-0.2807 0.3814-0.1875 0.718-0.5235 1.0091-1.009h2.9544c-0.1529 0.416-0.3641 0.8321-0.6346 1.248-0.2705 0.4162-0.6175 0.7943-1.0403 1.1341-0.4231 0.3401-0.9258 0.6138-1.5084 0.8219-0.5825 0.2079-1.2622 0.312-2.0389 0.312z" fill="#fff"/>
<path d="m96.164 7.826c0-0.70721 0.0832-1.2757 0.2496-1.7058s0.423-0.75954 0.7698-0.98833c0.3466-0.22878 0.7764-0.38124 1.2899-0.45777 0.513-0.07613 1.1237-0.11449 1.8306-0.11449h0.978v2.1429h-0.562c-0.36 0-0.648 0.01416-0.8631 0.04131-0.2152 0.02734-0.3848 0.08557-0.5097 0.17469-0.1249 0.08891-0.2081 0.21265-0.2498 0.37023-0.0413 0.15777-0.0624 0.36668-0.0624 0.62695v0.53449h2.247v1.9764h-2.247v9.2168h-2.8709v-9.2168h-1.5813v-1.9764h1.5813v-0.6242z" fill="#fff"/>
<path d="m103.55 5.4126h2.871v3.0376h2.33v1.9764h-2.33v5.784c0 0.5688 0.107 0.9398 0.322 1.1131 0.215 0.1737 0.579 0.26 1.093 0.26h0.873v2.0597h-2.101c-0.638 0-1.158-0.0521-1.56-0.156-0.403-0.1042-0.715-0.2772-0.936-0.5201-0.222-0.2426-0.372-0.5548-0.448-0.9364-0.076-0.3813-0.114-0.8493-0.114-1.4042v-6.2001h-1.581v-1.9764h1.581v-3.0376z" fill="#fff"/>
<path d="m14.655 21.256c0.8259-0.5722 1.6848-1.1893 2.4876-1.8057l-6.3317-10.947 4.3521-7.5248-3.0415-0.84787-4.8425 8.3727 7.376 12.753z" fill="#DF4C41"/>
<path d="m17.525 8.5031 3.4106-5.8971v-0.01809l-2.8131-0.78433-3.8749 6.6995 5.2021 8.9943c0.3034-0.2965 0.5638-0.579 0.7667-0.8396 0.4387-0.5633 0.6808-1.2612 0.7156-1.9254 0.0347-0.6639-3.407-6.2293-3.407-6.2293z" fill="#DF4C41"/>
<path d="m3.8422 8.5031 4.8173-8.3296-8.6595 2.4144v11.991c0 0.7554 0.24866 1.4745 0.71921 2.0788 2.0276 2.6073 9.7487 7.3422 9.7487 7.3422s0.6893-0.4227 1.7097-1.0847l-8.3354-14.412z" fill="#DF4C41"/>
</g>
<defs>
<clipPath id="a">
<rect width="108.79" height="24" fill="#fff"/>
</clipPath>
</defs>
</svg>
